<?xml version="1.0" encoding="UTF-8" standalone="no"?>
<!-- Created with Inkscape (http://www.inkscape.org/) -->

<svg
   xmlns:osb="http://www.openswatchbook.org/uri/2009/osb"
   xmlns:dc="http://purl.org/dc/elements/1.1/"
   xmlns:cc="http://creativecommons.org/ns#"
   xmlns:rdf="http://www.w3.org/1999/02/22-rdf-syntax-ns#"
   xmlns:svg="http://www.w3.org/2000/svg"
   xmlns="http://www.w3.org/2000/svg"
   xmlns:sodipodi="http://sodipodi.sourceforge.net/DTD/sodipodi-0.dtd"
   xmlns:inkscape="http://www.inkscape.org/namespaces/inkscape"
   width="2.2244756mm"
   height="4.762105mm"
   viewBox="0 0 7.8820002 16.8736"
   id="svg6410"
   version="1.1"
   inkscape:version="0.91 r13725"
   sodipodi:docname="fb-hover.svg">
  <defs
     id="defs6412">
    <linearGradient
       id="SPMM_Nono_Mid-4"
       osb:paint="solid"
       gradientTransform="matrix(2.830817e-5,0,0,2.830817e-5,870.62286,942.76489)">
      <stop
         style="stop-color:#e6f2fc;stop-opacity:1;"
         offset="0"
         id="stop4787" />
    </linearGradient>
  </defs>
  <sodipodi:namedview
     id="base"
     pagecolor="#ffffff"
     bordercolor="#666666"
     borderopacity="1.0"
     inkscape:pageopacity="0.0"
     inkscape:pageshadow="2"
     inkscape:zoom="5.6"
     inkscape:cx="10.755099"
     inkscape:cy="-5.5580948"
     inkscape:document-units="px"
     inkscape:current-layer="layer1"
     showgrid="false"
     fit-margin-top="0"
     fit-margin-left="0"
     fit-margin-right="0"
     fit-margin-bottom="0"
     inkscape:window-width="1366"
     inkscape:window-height="705"
     inkscape:window-x="-6"
     inkscape:window-y="-6"
     inkscape:window-maximized="1" />
  <metadata
     id="metadata6415">
    <rdf:RDF>
      <cc:Work
         rdf:about="">
        <dc:format>image/svg+xml</dc:format>
        <dc:type
           rdf:resource="http://purl.org/dc/dcmitype/StillImage" />
        <dc:title></dc:title>
      </cc:Work>
    </rdf:RDF>
  </metadata>
  <g
     inkscape:label="Layer 1"
     inkscape:groupmode="layer"
     id="layer1"
     transform="translate(-493.20186,-549.63969)">
    <path
       style="fill:url(#SPMM_Nono_Mid-4);stroke-width:1"
       d="m 495.30486,562.30569 0,-4.2187 -1.0517,0 -1.0513,0 0.012,-1.449 0.012,-1.4488 1.0444,-0.012 1.0445,-0.012 0,-1.0307 c 0,-1.3642 0.034,-1.8198 0.1766,-2.392 0.1416,-0.5671 0.3569,-0.9669 0.7066,-1.3109 0.3306,-0.3254 0.7902,-0.5531 1.3543,-0.6712 0.4975,-0.1048 0.7874,-0.1205 2.1769,-0.1205 l 1.3547,-2e-4 -0.012,1.4489 -0.012,1.4489 -0.9434,0.016 c -0.5188,0.012 -0.9938,0.029 -1.0553,0.043 -0.062,0.016 -0.1761,0.063 -0.2543,0.1072 -0.1121,0.064 -0.1586,0.1108 -0.2205,0.2295 -0.1035,0.1969 -0.1255,0.4536 -0.1267,1.4571 l 0,0.7751 1.2923,0 c 0.7552,0 1.2987,0.012 1.3076,0.024 0.016,0.024 -0.012,0.2264 -0.1207,1.2827 -0.029,0.267 -0.071,0.6672 -0.094,0.8896 -0.021,0.2222 -0.048,0.474 -0.056,0.5593 l -0.017,0.1549 -1.1555,0 -1.1553,0 0,4.2187 0,4.2187 -1.5768,0 -1.577,0 z"
       id="path8852"
       inkscape:connector-curvature="0" />
  </g>
</svg>
