<?xml version="1.0" encoding="UTF-8" standalone="no"?>
<svg id="svg7019" xmlns:rdf="http://www.w3.org/1999/02/22-rdf-syntax-ns#" xmlns="http://www.w3.org/2000/svg" xmlns:osb="http://www.openswatchbook.org/uri/2009/osb" height="4.536mm" width="4.5351mm" version="1.1" xmlns:cc="http://creativecommons.org/ns#" viewBox="0 0 16.069401 16.0724" xmlns:dc="http://purl.org/dc/elements/1.1/">
 <defs id="defs7021">
  <linearGradient id="SPMM_Nono_Mid-4" gradientTransform="matrix(.000028308 0 0 .000028308 590.23 700.01)" osb:paint="solid">
   <stop id="stop4787" stop-color="#e6f2fc" offset="0"/>
  </linearGradient>
 </defs>
 <g id="layer1" transform="translate(-280.54 -307.18)">
  <path id="path8880" fill="url(#SPMM_Nono_Mid-4)" d="m288.05 323.07c-0.04-1.7336-0.6688-3.3918-1.7798-4.6935-0.2074-0.2429-0.5267-0.5698-0.7477-0.7653-1.2571-1.1123-2.787-1.7586-4.4503-1.8801-0.1143-0.01-0.467-0.024-0.4811-0.022 0 0-0.018 0-0.032 0.0002h-0.027v-1.5331-1.5331h0.157c0.7746 0.01 1.5856 0.1123 2.3506 0.2998 0.2485 0.061 0.3675 0.094 0.6215 0.1717 1.8374 0.5643 3.5339 1.6661 4.8233 3.1326 0.8002 0.9104 1.4333 1.9358 1.8834 3.0506 0.3281 0.8129 0.5536 1.668 0.6711 2.5453 0.055 0.4078 0.09 0.8841 0.091 1.2413v0.1616h-1.5402-1.5401zm5.4754 0.082c0-0.1018-0.011-0.4511-0.015-0.5351 0-0.027-0.01-0.08-0.01-0.1162-0.1046-1.8539-0.6163-3.6856-1.4878-5.3265-0.7552-1.4216-1.7659-2.6916-2.9857-3.7515-0.7229-0.6281-1.5222-1.1791-2.387-1.6457-0.3039-0.1639-0.7954-0.3978-1.1173-0.5317-1.2952-0.5385-2.6203-0.856-4.0141-0.962-0.2874-0.022-0.4235-0.028-0.7203-0.033h-0.2526v-1.5339-1.5338h0.1522c0.1895 0 0.6825 0.018 0.8144 0.028 0.019 0 0.059 0.01 0.088 0.01 0.371 0.024 0.7983 0.068 1.1706 0.12 2.6877 0.3748 5.2308 1.4282 7.4099 3.0692 1.1459 0.8629 2.1733 1.8747 3.0511 3.0048 1.5782 2.0318 2.6367 4.3837 3.1066 6.9026 0.1117 0.5989 0.201 1.3132 0.2351 1.8803 0 0.035 0.01 0.076 0.01 0.094 0.01 0.1104 0.027 0.6189 0.028 0.8114v0.1521h-1.5381-1.538v-0.096zm-10.994 0.072c-0.09-0.01-0.1744-0.018-0.2479-0.031-0.3449-0.063-0.65-0.2-0.9353-0.4203-0.086-0.067-0.2804-0.2581-0.3461-0.3414-0.2546-0.3229-0.4018-0.6691-0.4552-1.0703-0.015-0.1142-0.015-0.4 0-0.5146 0.032-0.2455 0.092-0.4469 0.1958-0.6609 0.08-0.1642 0.1501-0.2761 0.266-0.4219 0.064-0.081 0.2331-0.249 0.3176-0.3162 0.3247-0.2586 0.6887-0.4114 1.0953-0.4598 0.1099-0.013 0.3586-0.014 0.4613 0 0.5064 0.057 0.9422 0.2661 1.2963 0.6219 0.3375 0.3393 0.5393 0.7485 0.6067 1.2309 0.014 0.1 0.016 0.4007 0 0.5053-0.062 0.5083-0.2906 0.9599-0.6627 1.3083-0.2739 0.2564-0.6255 0.4436-0.9839 0.5239-0.1917 0.043-0.4417 0.064-0.611 0.05z"/>
 </g>
</svg>
