<?xml version="1.0" encoding="UTF-8" standalone="no"?>
<svg id="svg5817" xmlns:rdf="http://www.w3.org/1999/02/22-rdf-syntax-ns#" xmlns="http://www.w3.org/2000/svg" xmlns:osb="http://www.openswatchbook.org/uri/2009/osb" height="4.8694mm" width="4.8694mm" version="1.1" xmlns:cc="http://creativecommons.org/ns#" viewBox="0 0 17.2539 17.253899" xmlns:dc="http://purl.org/dc/elements/1.1/">
 <defs id="defs5819">
  <linearGradient id="mono-mid-9" gradientTransform="matrix(.016231 0 0 .016231 1.2015e5 1.922e5)" osb:paint="solid">
   <stop id="stop4787" stop-color="#7a8a96" offset="0"/>
  </linearGradient>
 </defs>
 <g id="layer1" transform="translate(-91.373 -100.88)">
  <path id="path10315" d="m98.373 100.88c-3.866 0-7 3.134-7 7s3.134 7 7 7c1.683 0 3.309-0.6099 4.5801-1.7129l4.9668 4.9668 0.707-0.7071-4.9687-4.9687c1.1032-1.2704 1.712-2.8956 1.7148-4.5781 0-3.866-3.134-7-7-7zm0 1c3.3137 0 6 2.6863 6 6 0 1.6219-0.6566 3.1748-1.8203 4.3047-1.1197 1.0872-2.619 1.6953-4.1797 1.6953-3.3137 0-6-2.6863-6-6s2.6863-6 6-6z" fill="url(#mono-mid-9)"/>
 </g>
</svg>
