<?xml version="1.0" encoding="UTF-8" standalone="no"?>
<svg id="svg6990" xmlns:rdf="http://www.w3.org/1999/02/22-rdf-syntax-ns#" xmlns="http://www.w3.org/2000/svg" xmlns:osb="http://www.openswatchbook.org/uri/2009/osb" height="4.4796mm" width="5.4873mm" version="1.1" xmlns:cc="http://creativecommons.org/ns#" viewBox="0 0 19.443184 15.872433" xmlns:dc="http://purl.org/dc/elements/1.1/">
 <defs id="defs6992">
  <linearGradient id="SPMM_Blue_Light-2" osb:paint="solid" gradientTransform="translate(-1074.4 -1020.4)">
   <stop id="stop5130" stop-color="#e6f2fc" offset="0"/>
  </linearGradient>
 </defs>
 <g id="layer1" transform="translate(-24.564 -393)">
  <path id="path8867" fill="url(#SPMM_Blue_Light-2)" d="m29.936 408.87c-1.224-0.082-2.4515-0.3615-3.5799-0.8171-0.3464-0.1399-1.3042-0.607-1.3913-0.6785-0.052-0.043-0.3364-0.2116-0.4-0.2375-0.022-0.01 0.2865-0.012 0.6864-0.01 0.7846 0.013 1.1301-0.013 1.7772-0.1388 0.879-0.1702 1.7834-0.5173 2.5708-0.9864 0.3114-0.1856 0.7411-0.4833 0.7813-0.5413 0.015-0.021-0.07-0.041-0.2416-0.055-1.2495-0.1076-2.4386-0.8656-3.0797-1.9633-0.1271-0.2175-0.3435-0.6882-0.3435-0.747 0-0.043 0.073-0.043 0.4031 0 0.3618 0.045 1.3165-0.048 1.3165-0.1291 0-0.014-0.053-0.035-0.1173-0.047-0.3709-0.067-1.0538-0.3929-1.4364-0.685-0.3438-0.2625-0.683-0.6198-0.915-0.9643-0.2522-0.3743-0.5281-1.0429-0.6086-1.4745-0.031-0.1674-0.077-0.7459-0.061-0.7715 0.01-0.013 0.1096 0.023 0.2248 0.081 0.3865 0.1944 1.1562 0.3849 1.4446 0.3574l0.1087-0.011-0.1717-0.1242c-0.4814-0.3484-0.9242-0.8983-1.1978-1.4879-0.2691-0.58-0.3687-1.0438-0.368-1.7145 0.0004-0.4806 0.05-0.7981 0.194-1.2538 0.076-0.2395 0.3072-0.7256 0.3391-0.7125 0.012 0.01 0.1069 0.1075 0.2103 0.228 1.8457 2.1477 4.5512 3.5749 7.348 3.8759 0.2443 0.027 0.5028 0.048 0.5747 0.048h0.1304l-0.02-0.1173c-0.1306-0.7572-0.065-1.5529 0.1817-2.2085 0.4271-1.1349 1.4296-2.068 2.5941-2.4144 0.5263-0.1564 1.1628-0.2074 1.6971-0.1355 0.7916 0.1063 1.6071 0.4902 2.1709 1.022l0.2194 0.207 0.3028-0.072c0.6201-0.1477 1.2806-0.3965 1.8452-0.6951 0.1949-0.103 0.3599-0.1819 0.3666-0.1751 0.019 0.02-0.1006 0.3172-0.234 0.581-0.2616 0.5172-0.7856 1.1215-1.2373 1.4268l-0.2188 0.1479 0.2501-0.021c0.4007-0.035 1.3484-0.2926 1.7758-0.4839 0.082-0.037 0.1618-0.063 0.1764-0.057 0.026 0.01-0.1322 0.2357-0.4101 0.5872-0.2991 0.3783-0.889 0.9568-1.2446 1.2205-0.058 0.043-0.1451 0.111-0.1937 0.1512l-0.089 0.073v0.4723c0 1.7427-0.3935 3.4433-1.1771 5.0873-0.4022 0.8438-1.0049 1.7784-1.5822 2.4533-0.5011 0.5859-1.1038 1.1847-1.4575 1.4481-0.062 0.046-0.1205 0.092-0.1291 0.1022-0.051 0.057-0.5621 0.4255-0.8285 0.597-1.4528 0.9357-2.9381 1.4653-4.7679 1.7002-0.372 0.048-1.7837 0.086-2.1886 0.058z"/>
 </g>
</svg>
