<?xml version="1.0" encoding="UTF-8" standalone="no"?>
<svg id="svg5041" xmlns:rdf="http://www.w3.org/1999/02/22-rdf-syntax-ns#" xmlns="http://www.w3.org/2000/svg" xmlns:osb="http://www.openswatchbook.org/uri/2009/osb" height="3.4821mm" width="6.1247mm" version="1.1" xmlns:cc="http://creativecommons.org/ns#" viewBox="0 0 21.701558 12.338117" xmlns:dc="http://purl.org/dc/elements/1.1/">
 <defs id="defs5043">
  <linearGradient id="SPMM_Nono_Mid-4" gradientTransform="matrix(.000028308 0 0 .000028308 602.76 631.37)" osb:paint="solid">
   <stop id="stop4787" stop-color="#e6f2fc" offset="0"/>
  </linearGradient>
 </defs>
 <g id="layer1" transform="translate(-183.43 -240.48)">
  <path id="path8837" fill="url(#SPMM_Nono_Mid-4)" d="m200.7 252.78c-0.3737-0.087-0.8905-0.3734-1.2265-0.6799-0.1688-0.154-0.5937-0.6018-0.9442-0.995-1.1167-1.2527-1.468-1.4104-1.9421-0.8718-0.2874 0.3266-0.4066 0.7378-0.4712 1.6267-0.037 0.5123-0.076 0.6093-0.3188 0.7904-0.1074 0.081-0.1967 0.09-1.0794 0.1138-1.4684 0.04-2.1357-0.054-3.0834-0.4338-0.8419-0.3375-2.0208-1.1169-2.7477-1.8166-0.944-0.9087-2.3695-2.8868-3.3957-4.7122-0.8541-1.5192-2.0086-3.9076-2.0558-4.2529-0.026-0.1911 0.058-0.338 0.2549-0.4456 0.124-0.068 0.3083-0.076 1.8737-0.089 1.5402-0.012 1.757-0.01 1.9215 0.057 0.3012 0.115 0.4128 0.2413 0.608 0.6881 0.5427 1.2422 1.4284 2.9519 1.8849 3.6383 0.5935 0.8926 1.1884 1.305 1.5337 1.0632 0.3118-0.2185 0.504-1.3353 0.4677-2.7178-0.043-1.6627-0.2563-2.1357-1.0589-2.3552-0.1629-0.045-0.2672-0.097-0.2752-0.1379-0.01-0.036 0.069-0.1465 0.1697-0.2448 0.4334-0.4241 0.9425-0.5235 2.6858-0.5244 1.9473 0 2.3627 0.1148 2.5716 0.7167 0.048 0.1365 0.059 0.6093 0.059 2.4183 0 2.2031 0 2.2526 0.09 2.4436 0.126 0.2724 0.2964 0.4203 0.4845 0.4203 0.1202 0 0.2076-0.046 0.4251-0.2259 0.3214-0.265 0.5199-0.4964 0.8982-1.047 0.6886-1.0018 1.2112-1.9506 1.706-3.0972 0.3432-0.7952 0.4193-0.927 0.579-1.0035 0.072-0.035 0.74-0.053 2.2448-0.064l2.1426-0.014 0.1786 0.096c0.3562 0.1904 0.3355 0.6137-0.069 1.4167-0.3115 0.6177-0.8129 1.3553-1.9287 2.8366-0.5536 0.7351-1.0668 1.4587-1.1405 1.6081-0.1587 0.3218-0.1666 0.586-0.026 0.8653 0.056 0.1116 0.506 0.5914 1.2015 1.2815 1.1475 1.1386 1.451 1.4811 1.8636 2.1027 0.2668 0.4019 0.3814 0.7817 0.3192 1.0574-0.039 0.1714-0.2425 0.3597-0.462 0.4267-0.2866 0.088-3.6044 0.1392-3.9383 0.062z"/>
 </g>
</svg>
